<svg width="240" height="80" viewBox="0 0 240 80" fill="none" xmlns="http://www.w3.org/2000/svg">
<rect width="240" height="80" fill="white"/>
<g clip-path="url(#clip0_1_802)">
<path d="M91.0186 41.4106C91.0246 38.8128 90.2275 36.2768 88.7358 34.1498C87.2445 32.0229 85.1317 30.4091 82.6874 29.5296C82.91 28.3959 83.022 27.2432 83.0223 26.0878C83.0246 22.2634 81.8138 18.5368 79.5645 15.4438C77.3152 12.3508 74.1431 10.0507 70.504 8.87426C66.8653 7.6978 62.9469 7.70556 59.3126 8.89641C55.6783 10.0873 52.5152 12.3999 50.2782 15.5017C48.6278 14.2228 46.6055 13.5165 44.5177 13.49C42.4299 13.4635 40.3903 14.1181 38.7079 15.3546C37.0255 16.5912 35.7919 18.3424 35.194 20.3429C34.5961 22.3434 34.6665 24.4843 35.3945 26.4413C32.9443 27.3343 30.8265 28.9563 29.3257 31.089C27.825 33.2217 27.0134 35.7628 27 38.3706C26.9932 40.9773 27.7947 43.522 29.294 45.6543C30.7933 47.7867 32.9168 49.402 35.3721 50.2775C35.1548 51.4109 35.0439 52.5618 35.041 53.7157C35.0373 57.5356 36.2469 61.258 38.4953 64.3464C40.7438 67.4344 43.9148 69.7287 47.5513 70.8986C51.1878 72.0681 55.1018 72.0528 58.729 70.8543C62.3562 69.6561 65.509 67.3369 67.733 64.231C69.3788 65.5133 71.3974 66.2236 73.4834 66.2548C75.5693 66.2861 77.6084 65.6361 79.2914 64.4037C80.9747 63.1709 82.21 61.4232 82.8099 59.4254C83.41 57.4273 83.3423 55.2885 82.6167 53.3324C85.0681 52.4409 87.1875 50.8193 88.6889 48.6865C90.1907 46.5536 91.0022 44.0116 91.0149 41.4031" fill="white"/>
<path d="M52.1684 35.4642L66.1777 41.8604L80.3172 29.4772C80.5207 28.4554 80.6219 27.4158 80.6186 26.3739C80.6178 23.0009 79.5377 19.7167 77.5358 17.0018C75.5343 14.2869 72.7164 12.2838 69.4941 11.2858C66.2722 10.2878 62.8154 10.3471 59.6296 11.4551C56.4437 12.5632 53.6961 14.6617 51.7888 17.4437L49.4335 29.626L52.1684 35.4642Z" fill="#FEC514"/>
<path d="M37.6679 50.2997C37.4614 51.3374 37.3579 52.3931 37.3591 53.4513C37.3592 56.8385 38.4449 60.1363 40.4571 62.8608C42.4692 65.5856 45.3017 67.5934 48.5388 68.5899C51.776 69.5864 55.2474 69.519 58.4434 68.3975C61.6395 67.2764 64.392 65.16 66.2967 62.3592L68.6297 50.2029L65.5153 44.2495L51.454 37.842L37.6679 50.2997Z" fill="#00BFB3"/>
<path d="M37.5824 26.0576L47.1824 28.3236L49.2847 17.4064C47.979 16.4163 46.3876 15.8758 44.749 15.8659C43.1104 15.8559 41.5125 16.377 40.1949 17.3511C38.8772 18.3252 37.9105 19.7 37.4395 21.2695C36.9685 22.8391 37.0187 24.5189 37.5824 26.0576Z" fill="#F04E98"/>
<path d="M36.7489 28.3423C34.6426 29.0531 32.8101 30.4026 31.5064 32.2032C30.2026 34.0038 29.4924 36.1659 29.4745 38.3888C29.473 40.5372 30.1254 42.6352 31.3451 44.4038C32.5647 46.1726 34.2937 47.5281 36.3024 48.2902L49.7722 36.1153L47.2978 30.8316L36.7489 28.3423Z" fill="#1BA9F5"/>
<path d="M68.76 62.359C70.0638 63.3439 71.6512 63.8812 73.285 63.8898C74.9189 63.8984 76.5118 63.3785 77.8257 62.4074C79.1399 61.4362 80.1044 60.0658 80.5758 58.5012C81.0469 56.9369 80.9993 55.2617 80.44 53.7265L70.8474 51.4939L68.76 62.359Z" fill="#93C90E"/>
<path d="M70.7098 48.9675L81.2698 51.4345C83.3773 50.7257 85.211 49.3768 86.5152 47.5755C87.8193 45.7746 88.5285 43.6115 88.5442 41.388C88.5423 39.2442 87.8885 37.1515 86.6699 35.3878C85.451 33.6241 83.7248 32.2726 81.72 31.5127L67.9079 43.6057L70.7098 48.9675Z" fill="#0077CC"/>
<path d="M116.511 52.8001L117.791 52.6699L117.88 55.2745C115.032 55.7047 112.158 55.941 109.277 55.9815C106.102 55.9815 103.852 55.0625 102.527 53.2243C101.203 51.3862 100.542 48.5259 100.544 44.6439C100.544 36.9118 103.618 33.0445 109.765 33.042C112.741 33.042 114.962 33.873 116.425 35.535C117.889 37.197 118.623 39.8017 118.628 43.349L118.453 45.8643H103.897C103.897 48.3052 104.338 50.1136 105.221 51.2894C106.105 52.4652 107.64 53.0532 109.828 53.0532C112.021 53.0606 114.248 52.9761 116.511 52.8001ZM115.32 43.2299C115.32 40.5236 114.887 38.6122 114.021 37.4959C113.156 36.3797 111.744 35.8203 109.787 35.8178C107.83 35.8178 106.359 36.4057 105.374 37.5815C104.389 38.7573 103.882 40.6401 103.852 43.2299H115.32Z" fill="#1C1E23"/>
<path d="M123.242 55.8065V26.7832H126.55V55.8065H123.242Z" fill="#1C1E23"/>
<path d="M147.383 40.1413V51.2669C147.383 52.3832 150.129 52.3237 150.129 52.3237L149.962 55.2483C147.636 55.2483 145.713 55.4418 144.559 54.3218C142.061 55.4314 139.355 55.9959 136.622 55.9776C134.596 55.9776 133.051 55.4035 131.99 54.2548C130.928 53.1062 130.398 51.4556 130.401 49.3023C130.401 47.1542 130.945 45.5728 132.034 44.5581C133.124 43.5435 134.829 42.9234 137.151 42.6976L144.075 42.039V40.1413C144.075 38.653 143.753 37.5789 143.108 36.919C142.754 36.5873 142.338 36.3306 141.882 36.1643C141.427 35.998 140.943 35.9257 140.459 35.9516H131.767V33.0381H140.239C142.74 33.0381 144.555 33.6124 145.687 34.7609C146.818 35.9094 147.383 37.7029 147.383 40.1413ZM133.791 49.1385C133.791 51.8448 134.907 53.1981 137.14 53.1981C139.154 53.1959 141.153 52.8524 143.052 52.1823L144.064 51.8288V44.5506L137.549 45.1683C136.224 45.2874 135.268 45.6695 134.68 46.3144C134.092 46.9592 133.796 47.9006 133.791 49.1385Z" fill="#1C1E23"/>
<path d="M160.299 35.9963C157.091 35.9963 155.487 37.1126 155.487 39.3451C155.487 40.3771 155.86 41.1051 156.604 41.5293C157.348 41.9535 159.024 42.3951 161.631 42.854C164.25 43.3129 166.103 43.9529 167.19 44.774C168.276 45.5952 168.821 47.1379 168.823 49.4028C168.823 51.67 168.095 53.3321 166.639 54.3888C165.183 55.4456 163.058 55.9751 160.265 55.9777C158.442 55.9777 152.354 55.3005 152.354 55.3005L152.533 52.4354C156.031 52.7702 158.557 53.0195 160.265 53.0195C161.973 53.0195 163.272 52.7479 164.168 52.2047C165.065 51.6614 165.512 50.7498 165.512 49.4698C165.512 48.1898 165.14 47.3228 164.366 46.8651C163.592 46.4074 161.925 45.9758 159.339 45.5628C156.753 45.1498 154.911 44.547 153.824 43.7544C152.738 42.9619 152.191 41.4884 152.191 39.3414C152.191 37.1944 152.935 35.6205 154.464 34.5786C155.993 33.5368 157.869 33.0344 160.131 33.0344C161.925 33.0344 168.15 33.4921 168.15 33.4921V36.3758C164.864 36.2307 162.178 35.9963 160.299 35.9963Z" fill="#1C1E23"/>
<path d="M184.767 36.3461H177.753V46.8912C177.753 49.4188 177.937 51.0798 178.304 51.8735C178.676 52.6698 179.547 53.0642 180.927 53.0642L184.853 52.8L185.076 55.5349C183.59 55.8099 182.085 55.9725 180.574 56.0223C178.282 56.0223 176.694 55.4631 175.811 54.3442C174.928 53.2253 174.488 51.0932 174.49 47.9479V36.3461H171.372V33.481H174.505V26.7312H177.768V33.481H184.767V36.3461Z" fill="#1C1E23"/>
<path d="M189.367 30.6642V26.8242H192.674V30.6642H189.367ZM189.367 55.8065V33.481H192.674V55.8065H189.367Z" fill="#1C1E23"/>
<path d="M207.004 33.0381C208.656 33.1086 210.301 33.2863 211.93 33.5702L212.987 33.7004L212.857 36.3906C211.128 36.1716 209.39 36.04 207.647 35.9962C205.147 35.9962 203.449 36.5916 202.553 37.7823C201.658 38.973 201.209 41.1783 201.206 44.3981C201.206 47.623 201.626 49.8652 202.464 51.1255C203.302 52.3858 205.051 53.0184 207.711 53.0232L212.92 52.6288L213.054 55.3637C211.026 55.7071 208.978 55.9136 206.922 55.9813C203.484 55.9813 201.11 55.0984 199.8 53.332C198.49 51.5657 197.835 48.589 197.835 44.4018C197.835 40.212 198.541 37.2713 199.953 35.5795C201.364 33.8877 203.714 33.0406 207.004 33.0381Z" fill="#1C1E23"/>
</g>
<defs>
<clipPath id="clip0_1_802">
<rect width="186.047" height="64" fill="white" transform="translate(27 8)"/>
</clipPath>
</defs>
</svg>
