<svg width="184" height="80" viewBox="0 0 184 80" fill="none" xmlns="http://www.w3.org/2000/svg">
<rect width="184" height="80" fill="white"/>
<path d="M39.7812 38.4375V34.1406H54C54.163 35.0165 54.2415 35.906 54.2344 36.7969C54.2344 39.9219 53.375 43.9062 50.5625 46.6406C47.8281 49.5312 44.3906 51.0156 39.7031 51.0156C31.1875 51.0156 24 44.0625 24 35.5469C24 27.0312 31.1875 20 39.7031 20C44.4688 20 47.8281 21.875 50.4062 24.2969L47.3594 27.2656C45.7723 25.751 43.7717 24.7409 41.6106 24.3631C39.4496 23.9853 37.225 24.2567 35.2181 25.1431C33.2113 26.0294 31.5123 27.4909 30.336 29.3427C29.1596 31.1946 28.5588 33.3536 28.6094 35.5469C28.6094 41.7969 33.5312 46.7969 39.7031 46.7969C43.7656 46.7969 46.1094 45.1562 47.5938 43.6719C48.7656 42.5 49.5469 40.7812 49.8594 38.4375H39.7812Z" fill="#4285F4"/>
<path d="M75.875 41.0156C75.875 46.7969 71.3438 51.0156 65.7969 51.0156C60.25 51.0156 55.7969 46.7969 55.7969 41.0156C55.7969 35.2344 60.3281 31.0156 65.7969 31.0156C71.2656 31.0156 75.875 35.2344 75.875 41.0156ZM71.4219 41.0156C71.4219 37.4219 68.8438 35 65.7969 35C62.75 35 60.1719 37.4219 60.1719 41.0156C60.1719 44.6094 62.8281 47.1094 65.7969 47.1094C68.7656 47.1094 71.4219 44.6094 71.4219 41.0156Z" fill="#EA4335"/>
<path d="M97.75 41.0156C97.75 46.7969 93.2188 51.0156 87.6719 51.0156C82.125 51.0156 77.6719 46.7969 77.6719 41.0156C77.6719 35.2344 82.2031 31.0156 87.6719 31.0156C93.1406 31.0156 97.75 35.2344 97.75 41.0156ZM93.2969 41.0156C93.2969 37.4219 90.7188 35 87.6719 35C84.625 35 82.0469 37.4219 82.0469 41.0156C82.0469 44.6094 84.7031 47.1094 87.6719 47.1094C90.6406 47.1094 93.2969 44.6094 93.2969 41.0156Z" fill="#FBBC04"/>
<path d="M118.688 31.6406V49.6094C118.688 56.9531 114.312 60 109.156 60C104.312 60 101.422 56.7188 100.328 54.0625L104.156 52.5C104.859 54.1406 106.5 56.0938 109.156 56.0938C112.516 56.0938 114.547 53.9844 114.547 50.2344V48.75H114.391C113.726 49.4946 112.905 50.0836 111.987 50.4751C111.069 50.8667 110.076 51.0512 109.078 51.0156C104.156 51.0156 99.5469 46.6406 99.5469 41.0938C99.5469 35.4688 104.156 31.0156 109.078 31.0156C111.5 31.0156 113.375 32.1094 114.391 33.2812H114.547V31.6406H118.688ZM114.859 41.0938C114.859 37.5781 112.516 35 109.469 35C106.5 35 103.922 37.5781 103.922 41.0938C103.922 44.5312 106.5 47.1094 109.469 47.1094C112.516 47.1094 114.859 44.5312 114.859 41.0938Z" fill="#4285F4"/>
<path d="M121.734 21.1719H126.109V50.4688H121.734V21.1719Z" fill="#34A853"/>
<path d="M143.062 44.2969L146.5 46.6406C145.406 48.2031 142.75 51.0156 138.141 51.0156C132.438 51.0156 128.219 46.6406 128.219 41.0156C128.219 35.0781 132.516 31.0156 137.672 31.0156C142.828 31.0156 145.406 35.1562 146.188 37.4219L146.656 38.5156L133.297 44.0625C134.312 46.0938 135.875 47.1094 138.141 47.1094C140.406 47.1094 141.891 46.0156 143.062 44.2969ZM132.594 40.7031L141.5 37.0312C141.031 35.7812 139.547 34.9219 137.828 34.9219C135.562 34.9219 132.438 36.875 132.594 40.7031Z" fill="#EA4335"/>
</svg>
