<svg width="240" height="80" viewBox="0 0 240 80" fill="none" xmlns="http://www.w3.org/2000/svg">
<rect width="240" height="80" fill="white"/>
<g clip-path="url(#clip0_1_806)">
<path fill-rule="evenodd" clip-rule="evenodd" d="M74.5662 27.3948C76.0577 27.1007 77.5703 27.1007 79.0407 27.3948L79.104 27.4159V52.0583L79.0407 52.0793C77.5492 52.3735 76.0577 52.3735 74.5662 52.0793L74.503 52.0583V42.0583H64.3562V52.0583L64.2932 52.0793C63.537 52.2264 62.8017 52.3102 62.0453 52.3102C61.2889 52.3102 60.5538 52.2264 59.8184 52.0793L59.7554 52.0583V27.4156L59.8184 27.3946C61.2891 27.0796 62.8017 27.0796 64.2932 27.3946L64.3562 27.4156V38.1297H74.503V27.4159L74.5662 27.3948ZM90.343 34.3275C92.948 34.3275 95.091 35.1677 96.4984 36.7225C98.0951 38.5081 98.7463 41.155 98.3892 44.4113V44.4952H86.0364C86.0786 47.8147 87.5281 49.4113 90.4481 49.4113C92.5487 49.4113 93.9775 48.3819 94.2716 46.6592V46.5962H94.3346C95.7001 46.407 96.8556 46.4911 98.0951 46.9112L98.1581 46.9323V46.9953C97.8429 49.8947 95.3222 52.8144 90.4062 52.8144C87.5281 52.8144 85.3221 51.9112 83.8726 50.1677C82.5281 48.55 81.8558 46.2599 81.8558 43.3189C81.8558 37.6887 85.028 34.3275 90.343 34.3275ZM90.2592 37.5208C87.6541 37.5208 86.1205 39.1174 85.9945 41.9112H94.2086C94.2716 40.5459 93.9356 39.4113 93.2002 38.6341C92.5068 37.8988 91.4984 37.5208 90.2589 37.5208H90.2592ZM101.414 27.3948C102.801 27.0798 104.229 27.0798 105.616 27.3948L105.679 27.4159V52.0583L105.616 52.0793C104.923 52.2264 104.208 52.3102 103.515 52.3102C102.822 52.3102 102.108 52.2264 101.414 52.0793L101.351 52.0583V27.4156L101.414 27.3948ZM117.822 34.3275C122.863 34.3275 125.742 37.7098 125.742 43.5922C125.742 49.3483 122.842 52.7936 117.99 52.7936C116.246 52.7936 114.691 52.3313 113.221 51.407V59.6211L113.158 59.6422C112.464 59.7893 111.75 59.8731 111.057 59.8731C110.364 59.8731 109.649 59.7893 108.956 59.6422L108.893 59.6211V35.1047L108.956 35.0839C109.986 34.7687 110.847 34.7687 111.897 35.0839L111.939 35.1047L112.191 36.4073C114.019 35.042 115.973 34.3275 117.822 34.3275ZM113.158 39.1802V47.9826C114.397 48.8441 115.616 49.264 116.897 49.264C119.901 49.264 121.498 47.3105 121.498 43.6552C121.498 39.9155 119.88 37.8779 116.939 37.8779C115.658 37.8779 114.46 38.298 113.158 39.1804V39.1802ZM144.229 38.7811C147.653 40.1047 151.203 41.4702 151.224 45.6087C151.182 51.8482 145.3 52.7936 141.729 52.7936C138.094 52.7936 135.258 51.8482 133.536 49.9994C132.254 48.6341 131.645 46.8693 131.771 44.8736V44.8106L131.834 44.7895C133.304 44.4532 134.817 44.4324 136.309 44.7265L136.371 44.7474V44.8106C136.246 45.9239 136.519 46.8274 137.17 47.5416C138.052 48.5079 139.607 49.0331 141.645 49.0331C143.493 49.0331 144.88 48.6338 145.678 47.8147C146.224 47.2475 146.497 46.5122 146.476 45.5879C146.434 43.8022 144.439 43.1299 141.12 41.9744C140.447 41.7433 139.67 41.4702 138.872 41.1761L138.493 41.0501C136.057 40.1677 131.96 38.6971 132.002 34.2645C132.065 29.8108 135.657 27.1428 141.623 27.1428H141.729C144.943 27.1639 147.485 28.0461 149.061 29.7268C150.342 31.0712 150.972 32.8779 150.867 34.9368V34.9998L150.804 35.0207C149.207 35.3778 147.737 35.4199 146.287 35.1258L146.224 35.1047V35.042C146.308 33.8235 146.014 32.836 145.342 32.122C144.565 31.2607 143.241 30.8195 141.54 30.8195C139.817 30.8195 138.388 31.2817 137.569 32.1428C137.002 32.7102 136.729 33.4453 136.75 34.2858C136.813 36.0925 138.829 36.8276 142.17 38.0252C142.821 38.2564 143.493 38.5083 144.229 38.7814V38.7811ZM162.001 37.8779C158.976 37.8779 157.569 39.6846 157.569 43.55C157.569 47.4154 158.976 49.2221 162.001 49.2221C162.779 49.2221 165.383 49.0329 165.783 46.344V46.281H165.846C167.232 46.0291 168.535 46.1129 169.711 46.5122L169.774 46.5332V46.5962C169.627 48.1929 168.913 49.6844 167.737 50.7768C166.329 52.1002 164.312 52.7936 161.917 52.7936C156.371 52.7936 153.304 49.5162 153.304 43.5711C153.304 37.6046 156.392 34.3064 162.001 34.3064C164.354 34.3064 166.35 34.9788 167.737 36.2602C168.955 37.3737 169.69 38.9493 169.816 40.6719V40.7349L169.753 40.756C168.514 41.1129 167.211 41.1972 165.846 40.9871H165.783V40.9239C165.636 39.7895 164.964 37.8779 162.001 37.8779ZM180.446 34.3275C185.972 34.3275 188.997 37.6049 188.997 43.5922C188.997 49.5371 185.972 52.8144 180.446 52.8144C174.942 52.8144 171.896 49.5373 171.896 43.5919C171.896 37.6257 174.921 34.3275 180.446 34.3275ZM184.837 43.5711C184.837 39.7476 183.408 37.8777 180.446 37.8777C177.442 37.8777 176.056 39.6846 176.056 43.5711C176.056 47.3946 177.484 49.2432 180.446 49.2432C183.408 49.2432 184.837 47.3735 184.837 43.5711ZM202.82 35.1047C204.227 34.7479 205.635 34.7479 207.022 35.1047L207.085 35.1258V52.0583L207.022 52.0793C206.013 52.3524 204.963 52.3524 203.954 52.0793L203.912 52.0583L203.492 50.1253C201.517 51.9531 199.69 52.7725 197.568 52.7725C193.639 52.7725 191.371 50.3776 191.371 46.1761V35.1258L191.434 35.1047C192.82 34.7687 194.249 34.7687 195.635 35.1047L195.698 35.1258V45.2097C195.698 47.9826 196.58 49.1593 198.639 49.1593C200.11 49.1593 201.37 48.613 202.757 47.4156V35.1258L202.82 35.1047ZM220.319 48.7598C220.635 49.9574 220.635 51.1129 220.298 52.2264L220.277 52.2683H220.235C219.038 52.4995 217.988 52.6255 217.063 52.6255C215.572 52.6255 214.437 52.3102 213.639 51.659C212.168 50.4405 212.042 48.2978 212.042 46.197L212 38.6552H209.836L209.816 38.5922C209.543 37.4156 209.543 36.2393 209.816 35.0839L209.836 35.0207H212L211.958 30.3572L212.021 30.3359C213.408 30.0209 214.836 30.0209 216.223 30.3359L216.286 30.357V35.0207H219.71L219.731 35.0839C219.962 36.2393 219.962 37.4156 219.731 38.5713L219.71 38.6341H216.286V46.4911C216.286 47.5416 216.517 48.2137 216.979 48.5919C217.568 49.0542 218.534 49.0961 220.215 48.6971L220.299 48.676L220.319 48.7598Z" fill="#213743"/>
<path fill-rule="evenodd" clip-rule="evenodd" d="M33.0709 31.7931L21.5255 43.5863C20.0826 42.1121 19.1806 40.0853 19 37.6896C19 35.4786 20.0824 33.2673 21.5255 31.7931L33.2515 20C34.6946 21.4743 35.5964 23.6853 35.5964 25.8965C35.5964 28.1078 34.5143 30.319 33.0711 31.7931H33.0709ZM38.1497 48.1222L49.8216 36.3289C51.2807 37.9873 52.1928 40.0144 52.1928 42.2254C52.1928 44.4366 51.0982 46.6479 49.6395 48.1222L37.9672 59.9152C36.5083 58.441 35.5964 56.2297 35.5964 54.0187C35.5964 51.8074 36.6905 49.5962 38.1497 48.1222ZM37.8635 31.7931L41.3097 28.3459L49.8347 20C51.2857 21.4515 52.1926 23.6287 52.1926 25.806C52.1926 27.9832 51.1044 30.1602 49.6532 31.6117L41.3097 39.9576L37.8635 43.4048L32.9665 48.3035L29.5202 51.7507L21.3581 59.9152C19.9068 58.4637 19 56.2865 19 54.1092C19 51.932 20.0884 49.7547 21.5394 48.3035L29.7016 40.1389L32.9662 36.6917L37.8635 31.7931Z" fill="#1292EE"/>
</g>
<defs>
<clipPath id="clip0_1_806">
<rect width="201.677" height="40" fill="white" transform="translate(19 20)"/>
</clipPath>
</defs>
</svg>
