<svg width="160" height="80" viewBox="0 0 160 80" fill="none" xmlns="http://www.w3.org/2000/svg">
<rect width="160" height="80" fill="white"/>
<path d="M132.555 52.995C132.555 52.65 132.268 52.4775 131.923 52.4775H131.348V54.2025H131.635V53.5125H131.865L132.267 54.2025H132.612L132.152 53.455C132.382 53.3975 132.555 53.225 132.555 52.995ZM131.577 53.225V52.765H131.865C132.037 52.765 132.21 52.8225 132.21 52.995C132.21 53.225 131.98 53.225 131.808 53.225H131.577ZM131.865 51.845C131.002 51.845 130.312 52.535 130.312 53.3975C130.312 54.26 131.002 54.8925 131.865 54.8925C132.727 54.8925 133.417 54.2025 133.417 53.3975C133.417 52.535 132.727 51.845 131.865 51.845ZM131.865 54.6625C131.175 54.6625 130.6 54.0875 130.6 53.3975C130.6 52.7075 131.175 52.1325 131.865 52.1325C132.555 52.1325 133.13 52.7075 133.13 53.3975C133.187 54.0875 132.612 54.6625 131.865 54.6625Z" fill="#0077C5"/>
<path d="M27.675 33.9625H32.85V54.6625H27.675V33.9625ZM49.525 33.33C46.4775 33.33 44.005 35.17 43.085 37.24H42.97V33.905H38.0825V54.605H43.2575V43.2775C43.2575 40.5175 44.81 37.6425 48.0875 37.6425C51.4225 37.6425 51.9975 40.69 51.9975 43.1625V54.6625H57.1725V41.725C57.1725 37.5275 54.93 33.33 49.525 33.33ZM94.0875 45.3475C94.0875 48.1075 92.535 50.9825 89.2575 50.9825C85.9225 50.9825 85.3475 47.935 85.3475 45.4625V33.9625H80.1725V46.9C80.1725 51.0975 82.415 55.2375 87.82 55.2375C90.8675 55.2375 93.34 53.3975 94.26 51.3275H94.375V54.6625H99.2625V33.9625H94.0875V45.3475ZM104.552 54.6625H109.727V33.9625H104.552V54.6625ZM59.8175 38.505H65.625V54.6625H70.8V38.505H76.6075V33.905H59.8175V38.505ZM68.2125 31.26C69.9375 31.26 71.3175 29.88 71.3175 28.155C71.3175 26.43 69.9375 25.05 68.2125 25.05C66.4875 25.05 65.1075 26.43 65.1075 28.155C65.1075 29.88 66.4875 31.26 68.2125 31.26ZM113.35 33.9625V38.5625H119.157V54.72H124.332V38.505H130.14V33.905H113.35V33.9625ZM121.745 31.26C123.47 31.26 124.85 29.88 124.85 28.155C124.85 26.43 123.47 25.05 121.745 25.05C120.02 25.05 118.64 26.43 118.64 28.155C118.64 29.8225 120.02 31.26 121.745 31.26Z" fill="#0077C5"/>
</svg>
