<svg width="160" height="80" viewBox="0 0 160 80" fill="none" xmlns="http://www.w3.org/2000/svg">
<rect width="160" height="80" fill="white"/>
<path d="M73.5969 19.1648C76.0584 16.6153 79.487 15.0036 83.2672 15.0036C88.3075 15.0036 92.6738 17.8168 95.0181 21.9779C97.0401 21.0695 99.2965 20.5714 101.67 20.5714C110.754 20.5714 118.08 27.9853 118.08 37.1281C118.08 46.271 110.725 53.6849 101.67 53.6849C100.557 53.6849 99.4724 53.5677 98.4467 53.3626C96.3954 57.0256 92.4687 59.5164 87.9559 59.5164C86.0804 59.5164 84.2929 59.0769 82.7104 58.315C80.6299 63.2087 75.7654 66.6666 70.1097 66.6666C64.2196 66.6666 59.1793 62.945 57.2452 57.6996C56.3954 57.8754 55.5163 57.9633 54.6372 57.9633C47.6042 57.9633 41.9192 52.2197 41.9192 45.0988C41.9192 40.3516 44.4687 36.1904 48.2782 33.9633C47.487 32.1758 47.0474 30.1831 47.0474 28.0732C47.0181 19.956 53.6702 13.3333 61.8167 13.3333C66.6225 13.3333 70.9009 15.619 73.5969 19.1648Z" fill="#00A1E0"/>
<path d="M52.9378 40.9963L53.2601 40.1465C53.3187 40 53.4066 40.0586 53.4652 40.0879C53.5531 40.1465 53.6117 40.1758 53.729 40.2637C54.6374 40.8498 55.4872 40.8498 55.7509 40.8498C56.4249 40.8498 56.8645 40.4982 56.8645 40V39.9707C56.8645 39.4432 56.2198 39.2381 55.4579 39.0037L55.2821 38.9451C54.2564 38.652 53.1429 38.2125 53.1429 36.9231V36.8938C53.1429 35.663 54.1392 34.7839 55.5751 34.7839H55.7216C56.5714 34.7839 57.3627 35.0183 57.9487 35.3993C58.0073 35.4286 58.066 35.4872 58.0366 35.5751C58.0073 35.663 57.7436 36.337 57.7143 36.4249C57.6557 36.5714 57.5092 36.4835 57.5092 36.4835C56.9817 36.1905 56.1905 35.9854 55.5165 35.9854C54.9011 35.9854 54.5202 36.3077 54.5202 36.7473V36.7766C54.5202 37.2747 55.1942 37.5092 55.9561 37.7436L56.1026 37.7729C57.1282 38.0952 58.2125 38.5348 58.2125 39.7949V39.8242C58.2125 41.1722 57.2454 41.9927 55.6923 41.9927C54.9304 41.9927 54.1978 41.8755 53.4066 41.4652C53.2601 41.3773 53.1136 41.3187 52.9671 41.2015C52.9378 41.1429 52.8791 41.1136 52.9378 40.9963ZM75.7949 40.9963L76.1172 40.1465C76.1758 40 76.293 40.0586 76.3223 40.0879C76.4103 40.1465 76.4689 40.1758 76.5861 40.2637C77.4945 40.8498 78.3443 40.8498 78.6081 40.8498C79.282 40.8498 79.7216 40.4982 79.7216 40V39.9707C79.7216 39.4432 79.0769 39.2381 78.315 39.0037L78.1392 38.9451C77.1136 38.652 76 38.2125 76 36.9231V36.8938C76 35.663 76.9963 34.7839 78.4322 34.7839H78.5788C79.4286 34.7839 80.2198 35.0183 80.8059 35.3993C80.8645 35.4286 80.9231 35.4872 80.8938 35.5751C80.8645 35.663 80.6007 36.337 80.5714 36.4249C80.5128 36.5714 80.3663 36.4835 80.3663 36.4835C79.8388 36.1905 79.0476 35.9854 78.3736 35.9854C77.7582 35.9854 77.3773 36.3077 77.3773 36.7473V36.7766C77.3773 37.2747 78.0513 37.5092 78.8132 37.7436L78.9597 37.7729C79.9853 38.0952 81.0696 38.5348 81.0696 39.7949V39.8242C81.0696 41.1722 80.1026 41.9927 78.5494 41.9927C77.7875 41.9927 77.0549 41.8755 76.2637 41.4652C76.1172 41.3773 75.9707 41.3187 75.8242 41.2015C75.8242 41.1429 75.7656 41.1136 75.7949 40.9963ZM92.7326 36.9817C92.8498 37.4213 92.9377 37.8901 92.9377 38.3883C92.9377 38.8865 92.8791 39.3553 92.7326 39.7949C92.6154 40.2344 92.4102 40.6154 92.1465 40.9377C91.8828 41.2601 91.5311 41.5238 91.1502 41.6996C90.7399 41.8755 90.271 41.9634 89.7436 41.9634C89.2161 41.9634 88.7472 41.8755 88.337 41.6996C87.9267 41.5238 87.6044 41.2601 87.3406 40.9377C87.0769 40.6154 86.8718 40.2344 86.7546 39.7949C86.6374 39.3553 86.5494 38.8865 86.5494 38.3883C86.5494 37.8901 86.608 37.4213 86.7546 36.9817C86.8718 36.5421 87.0769 36.1612 87.3406 35.8388C87.6044 35.5165 87.956 35.2528 88.337 35.0769C88.7472 34.9011 89.2161 34.7839 89.7436 34.7839C90.271 34.7839 90.7399 34.8718 91.1502 35.0769C91.5604 35.2528 91.8828 35.5165 92.1465 35.8388C92.4102 36.1612 92.6154 36.5421 92.7326 36.9817ZM91.4139 38.359C91.4139 37.5971 91.2674 37.011 91.0037 36.6007C90.7399 36.1905 90.3004 35.9854 89.7436 35.9854C89.1575 35.9854 88.7472 36.1905 88.4835 36.6007C88.2198 37.011 88.0732 37.5971 88.0732 38.359C88.0732 39.1209 88.2198 39.707 88.4835 40.1465C88.7472 40.5568 89.1575 40.7619 89.7436 40.7619C90.3297 40.7619 90.7399 40.5568 91.0037 40.1465C91.2967 39.7363 91.4139 39.1209 91.4139 38.359ZM103.458 40.5568L103.78 41.4359C103.809 41.5531 103.722 41.5824 103.722 41.5824C103.223 41.7876 102.549 41.9048 101.875 41.9048C100.733 41.9048 99.8828 41.5824 99.2967 40.9377C98.7106 40.293 98.4176 39.4139 98.4176 38.3297C98.4176 37.8315 98.4762 37.3626 98.6227 36.9231C98.7692 36.4835 98.9743 36.1026 99.2674 35.7802C99.5604 35.4579 99.9121 35.1941 100.322 35.0183C100.733 34.8425 101.231 34.7253 101.788 34.7253C102.168 34.7253 102.491 34.7546 102.755 34.7839C103.048 34.8425 103.458 34.9304 103.634 35.0183C103.663 35.0183 103.751 35.0769 103.722 35.1648C103.604 35.5165 103.516 35.7509 103.399 36.044C103.341 36.1905 103.253 36.1319 103.253 36.1319C102.813 35.9854 102.403 35.9267 101.875 35.9267C101.231 35.9267 100.733 36.1319 100.44 36.5714C100.117 36.9817 99.9414 37.5385 99.9414 38.3004C99.9414 39.1209 100.146 39.707 100.498 40.0879C100.85 40.4689 101.348 40.6447 101.993 40.6447C102.256 40.6447 102.491 40.6154 102.696 40.5861C102.901 40.5568 103.106 40.4982 103.311 40.4103C103.282 40.4689 103.399 40.4396 103.458 40.5568ZM110.11 36.718C110.403 37.7143 110.256 38.5641 110.227 38.6227C110.227 38.7399 110.11 38.7399 110.11 38.7399H105.685C105.714 39.4139 105.861 39.8828 106.212 40.2051C106.535 40.5275 107.033 40.7326 107.736 40.7326C108.791 40.7326 109.231 40.5275 109.553 40.4103C109.553 40.4103 109.67 40.381 109.729 40.4982L110.022 41.3187C110.081 41.4652 110.022 41.4945 109.993 41.5238C109.729 41.6703 109.055 41.9634 107.766 41.9634C107.15 41.9634 106.593 41.8755 106.154 41.6996C105.714 41.5238 105.333 41.2894 105.04 40.967C104.747 40.6447 104.542 40.2637 104.396 39.8535C104.249 39.4139 104.19 38.9451 104.19 38.4469C104.19 37.9487 104.249 37.4799 104.396 37.0403C104.513 36.6007 104.718 36.2198 104.982 35.8974C105.245 35.5751 105.597 35.3114 106.007 35.1355C106.418 34.9304 106.916 34.8425 107.472 34.8425C107.941 34.8425 108.381 34.9304 108.733 35.1062C108.996 35.2234 109.289 35.4286 109.582 35.7509C109.729 35.8681 109.993 36.3077 110.11 36.718ZM105.714 37.6557H108.85C108.82 37.2454 108.733 36.8938 108.557 36.6007C108.293 36.1905 107.912 35.956 107.326 35.956C106.74 35.956 106.33 36.1905 106.066 36.6007C105.89 36.8645 105.802 37.2161 105.714 37.6557ZM74.7399 36.718C75.033 37.7143 74.8864 38.5641 74.8864 38.6227C74.8864 38.7399 74.7692 38.7399 74.7692 38.7399H70.3443C70.3736 39.4139 70.5202 39.8828 70.8718 40.2051C71.1941 40.5275 71.6923 40.7326 72.3956 40.7326C73.4506 40.7326 73.8901 40.5275 74.2125 40.4103C74.2125 40.4103 74.3297 40.381 74.3883 40.4982L74.6813 41.3187C74.7399 41.4652 74.6813 41.4945 74.652 41.5238C74.3883 41.6703 73.7143 41.9634 72.4249 41.9634C71.8095 41.9634 71.2528 41.8755 70.8132 41.6996C70.3736 41.5238 69.9927 41.2894 69.6996 40.967C69.4066 40.6447 69.2015 40.2637 69.055 39.8535C68.9084 39.4139 68.8498 38.9451 68.8498 38.4469C68.8498 37.9487 68.9084 37.4799 69.055 37.0403C69.1722 36.6007 69.3773 36.2198 69.641 35.8974C69.9048 35.5751 70.2564 35.3114 70.6667 35.1355C71.0769 34.9304 71.5751 34.8425 72.1319 34.8425C72.6007 34.8425 73.0403 34.9304 73.3919 35.1062C73.6557 35.2234 73.9487 35.4286 74.2418 35.7509C74.359 35.8681 74.652 36.3077 74.7399 36.718ZM70.3443 37.6557H73.5092C73.4799 37.2454 73.3919 36.8938 73.2161 36.6007C72.9524 36.1905 72.5714 35.956 71.9853 35.956C71.3993 35.956 70.989 36.1905 70.7253 36.6007C70.5202 36.8645 70.4322 37.2161 70.3443 37.6557ZM62.5788 37.4213C62.5788 37.4213 62.9304 37.4506 63.3114 37.5092V37.3333C63.3114 36.7473 63.1942 36.4542 62.9597 36.2784C62.7253 36.1026 62.3443 35.9854 61.8755 35.9854C61.8755 35.9854 60.7912 35.9854 59.9414 36.4249C59.9121 36.4542 59.8828 36.4542 59.8828 36.4542C59.8828 36.4542 59.7656 36.4835 59.7363 36.3956L59.4139 35.5458C59.3553 35.4286 59.4432 35.37 59.4432 35.37C59.8535 35.0476 60.7912 34.8718 60.7912 34.8718C61.1136 34.8132 61.641 34.7546 61.9634 34.7546C62.8425 34.7546 63.5165 34.9597 63.9854 35.37C64.4542 35.7802 64.6887 36.4249 64.6887 37.3333V41.3773C64.6887 41.3773 64.6887 41.4945 64.6007 41.5238C64.6007 41.5238 64.4249 41.5824 64.2784 41.6117C64.1319 41.641 63.6044 41.7583 63.1648 41.8169C62.7253 41.9048 62.2857 41.9341 61.8169 41.9341C61.3773 41.9341 60.9964 41.9048 60.6447 41.8169C60.2931 41.7289 60 41.6117 59.7363 41.4359C59.5018 41.2601 59.2967 41.0257 59.1502 40.7326C59.0037 40.4689 58.9451 40.1172 58.9451 39.7363C58.9451 39.3553 59.033 39.0037 59.1795 38.7106C59.326 38.4176 59.5605 38.1832 59.8242 37.978C60.0879 37.7729 60.4103 37.6557 60.7326 37.5385C61.0843 37.4506 61.4359 37.3919 61.8169 37.3919C62.1685 37.4213 62.4029 37.4213 62.5788 37.4213ZM60.8205 40.5275C60.8205 40.5275 61.2308 40.8498 62.1099 40.7912C62.7546 40.7619 63.3114 40.6447 63.3114 40.6447V38.6227C63.3114 38.6227 62.7546 38.5348 62.1099 38.5348C61.2015 38.5348 60.8205 38.8572 60.8205 38.8572C60.5568 39.033 60.4396 39.326 60.4396 39.707C60.4396 39.9414 60.4982 40.1465 60.5861 40.2931C60.6154 40.3517 60.6447 40.4103 60.8205 40.5275ZM98.1831 35.1648C98.1538 35.2821 97.9194 35.8974 97.8608 36.1026C97.8315 36.1905 97.7729 36.2198 97.685 36.2198C97.685 36.2198 97.4212 36.1612 97.1868 36.1612C97.0403 36.1612 96.8058 36.1905 96.6007 36.2491C96.3956 36.3077 96.2198 36.4249 96.0439 36.5714C95.8681 36.718 95.7509 36.9524 95.663 37.2161C95.5751 37.4799 95.5165 37.9194 95.5165 38.3883V41.6703C95.5165 41.7583 95.4579 41.8169 95.3699 41.8169H94.1978C94.1099 41.8169 94.0513 41.7583 94.0513 41.6703V35.0769C94.0513 34.989 94.1099 34.9304 94.1685 34.9304H95.3113C95.3993 34.9304 95.4286 34.989 95.4286 35.0769V35.6044C95.6044 35.37 95.8974 35.1648 96.1612 35.0476C96.4249 34.9304 96.7472 34.8425 97.304 34.8718C97.597 34.9011 97.978 34.9597 98.0366 34.989C98.1538 35.0183 98.2124 35.0476 98.1831 35.1648ZM87.3113 32.1172C87.3406 32.1172 87.4286 32.1758 87.3993 32.2637L87.0476 33.2015C87.0183 33.2601 86.989 33.3187 86.8425 33.2601C86.8132 33.2601 86.7546 33.2308 86.608 33.2015C86.5201 33.1722 86.3736 33.1722 86.2564 33.1722C86.0806 33.1722 85.9341 33.2015 85.7875 33.2308C85.641 33.2601 85.5238 33.348 85.4066 33.4652C85.2695 33.5989 85.16 33.7582 85.0842 33.9341C84.9084 34.4029 84.8498 34.9011 84.8498 34.9304H86.2564C86.3736 34.9304 86.4029 34.989 86.4029 35.0769L86.2271 35.9854C86.1978 36.1319 86.0806 36.1026 86.0806 36.1026H84.6154L83.6776 41.7583C83.5604 42.3443 83.4432 42.8425 83.2967 43.2528C83.1502 43.663 82.9743 43.9561 82.7106 44.2491C82.4762 44.5128 82.2124 44.718 81.8901 44.8059C81.5971 44.9231 81.2161 44.9817 80.8059 44.9817C80.6007 44.9817 80.3956 44.9817 80.1612 44.9231C79.9853 44.8938 79.8974 44.8645 79.7509 44.8059C79.6923 44.7766 79.663 44.718 79.6923 44.6301C79.7216 44.5421 79.9853 43.8388 80.0146 43.7216C80.0733 43.6044 80.1612 43.663 80.1612 43.663C80.2491 43.6923 80.3077 43.7216 80.3956 43.7509C80.5128 43.7802 80.63 43.7802 80.7472 43.7802C80.9524 43.7802 81.1282 43.7509 81.2747 43.6923C81.4505 43.6337 81.5678 43.5165 81.685 43.37C81.8022 43.2235 81.8901 43.0183 82.0073 42.7546C82.0952 42.4909 82.1831 42.1099 82.2711 41.6703L83.2674 36.1319H82.3004C82.1831 36.1319 82.1538 36.0733 82.1538 35.9854L82.3297 35.0769C82.359 34.9304 82.4762 34.9597 82.4762 34.9597H83.4725L83.5311 34.6667C83.6776 33.7875 83.9707 33.1136 84.4102 32.674C84.8498 32.2344 85.4945 32 86.2857 32C86.5201 32 86.7253 32.0293 86.9011 32.0586C87.0183 32.0293 87.1648 32.0586 87.3113 32.1172ZM67.5604 41.641C67.5604 41.7289 67.5018 41.7876 67.4432 41.7876H66.2711C66.1832 41.7876 66.1539 41.7289 66.1539 41.641V32.2344C66.1539 32.1758 66.2125 32.0879 66.2711 32.0879H67.4432C67.5311 32.0879 67.5604 32.1465 67.5604 32.2344V41.641Z" fill="white"/>
</svg>
