<svg width="160" height="80" viewBox="0 0 160 80" fill="none" xmlns="http://www.w3.org/2000/svg">
<rect width="160" height="80" fill="white"/>
<path d="M33.8463 17.156V62.821H80.4941L126.154 17.1611H33.8463V17.156Z" fill="url(#paint0_linear_1_822)"/>
<path d="M92.9325 58.1532V61.5589H93.4466V60.081H94.0248L94.9566 61.5589H95.5349L94.5389 60.081C95.0366 60.0193 95.4385 59.7299 95.4385 59.1171C95.4385 58.4457 95.0277 58.1532 94.2177 58.1532H92.9325ZM93.4466 58.603H94.1533C94.5009 58.603 94.8924 58.6596 94.8924 59.0849C94.8924 59.6166 94.496 59.6634 94.057 59.6634H93.4466V58.603ZM94.0892 56.9001C92.4585 56.9001 91.0689 58.1566 91.0689 59.856C91.0689 61.5679 92.4584 62.8441 94.0892 62.8441C95.6972 62.8441 97.0451 61.5681 97.0451 59.856C97.0451 58.1566 95.6972 56.9001 94.0892 56.9001ZM94.0892 57.3821C95.4195 57.3821 96.4666 58.4568 96.4666 59.856C96.4666 61.2792 95.4195 62.33 94.0892 62.33C92.736 62.33 91.6473 61.2792 91.6473 59.856C91.6473 58.4568 92.736 57.3821 94.0892 57.3821Z" fill="#1870C5"/>
<path fill-rule="evenodd" clip-rule="evenodd" d="M89.1573 39.006H87.1565V31.6887H89.1573C91.8284 31.6887 93.9546 32.5688 93.9546 35.3006C93.9546 38.1218 91.8284 39.006 89.1573 39.006ZM67.6228 44.2372C66.5639 44.2372 65.5707 44.0439 64.7122 43.7211L67.5941 34.6323H67.6557L70.478 43.7458C69.6277 44.0501 68.6602 44.2372 67.6259 44.2372H67.6228ZM88.6268 25.744H79.5411V47.3484L71.6038 25.744H63.7365L56.9548 43.8064C56.2382 39.2538 51.5221 37.6776 47.8146 36.5025C45.3707 35.7159 42.7695 34.5603 42.7932 33.2803C42.8138 32.2336 44.1904 31.263 46.9058 31.408C48.7359 31.5006 50.35 31.6486 53.5548 33.198L56.7112 27.6995C53.7871 26.2056 49.7352 25.2679 46.4205 25.2607H46.3999C42.5331 25.2607 39.3109 26.5212 37.3122 28.5847C35.9231 30.0282 35.1716 31.8542 35.1376 33.8869C35.0862 36.6711 36.1113 38.6472 38.257 40.2274C40.0727 41.5579 42.3891 42.4143 44.4351 43.0559C46.9592 43.8342 49.0196 44.5138 48.996 45.9624C48.9754 46.4899 48.779 46.9844 48.3976 47.3751C47.7694 48.028 46.804 48.2696 45.4684 48.2994C42.894 48.3508 40.9847 47.9498 37.9434 46.1526L35.1376 51.7283C38.1696 53.4545 41.7589 54.4642 45.4222 54.4642H45.8961C49.0834 54.4025 51.6578 53.4926 53.7152 51.8393L54.0483 51.5483L53.1394 53.9912H61.3902L62.7762 49.7768C64.2259 50.2673 65.8771 50.5428 67.6249 50.5428C69.3306 50.5428 70.9396 50.2858 72.3636 49.8169L73.6961 53.9912H87.1586V45.2623H90.096C97.1902 45.2623 101.391 41.6514 101.391 35.5915C101.391 28.8469 97.3115 25.7532 88.6257 25.7532" fill="white"/>
<defs>
<linearGradient id="paint0_linear_1_822" x1="79.9677" y1="17.1807" x2="79.9677" y2="62.822" gradientUnits="userSpaceOnUse">
<stop stop-color="#00B8F1"/>
<stop offset="0.2199" stop-color="#06A5E5"/>
<stop offset="0.7943" stop-color="#1870C5"/>
<stop offset="1" stop-color="#1D61BC"/>
</linearGradient>
</defs>
</svg>
