<svg width="160" height="80" viewBox="0 0 160 80" fill="none" xmlns="http://www.w3.org/2000/svg">
<rect width="160" height="80" fill="white"/>
<path d="M48.1338 30.0011C48.1114 29.8438 47.9765 29.7539 47.8642 29.7539C47.7518 29.7539 45.5272 29.7089 45.5272 29.7089C45.5272 29.7089 43.6621 27.9113 43.4823 27.709C43.3026 27.5292 42.943 27.5742 42.8082 27.6191C42.8082 27.6191 42.4487 27.7315 41.8644 27.9113C41.7746 27.5967 41.6173 27.2146 41.415 26.8102C40.7634 25.5518 39.7746 24.8777 38.6061 24.8777C38.5163 24.8777 38.4488 24.8777 38.359 24.9001C38.314 24.8552 38.2916 24.8103 38.2466 24.7878C37.7298 24.2485 37.0781 23.9788 36.2916 24.0013C34.7861 24.0462 33.2805 25.1473 32.0446 27.0798C31.1907 28.4506 30.5391 30.1583 30.3368 31.4841C28.6066 32.0234 27.3931 32.4054 27.3482 32.4054C26.4718 32.6751 26.4493 32.6976 26.337 33.529C26.292 34.1582 24 51.8878 24 51.8878L43.2352 55.2135L51.5719 53.1462C51.5494 53.1462 48.1563 30.1583 48.1338 30.0011ZM40.8982 28.2258C40.4488 28.3607 39.9544 28.518 39.4151 28.6977C39.4151 27.9337 39.3027 26.8551 38.9657 25.9563C40.1117 26.136 40.6735 27.4394 40.8982 28.2258ZM38.4039 28.9899C37.3927 29.3045 36.2916 29.6415 35.1906 29.9786C35.5051 28.7876 36.0894 27.6191 36.8085 26.8326C37.0781 26.5405 37.4601 26.2259 37.8871 26.0462C38.3365 26.9225 38.4264 28.1584 38.4039 28.9899ZM36.3366 25.0125C36.6961 25.0125 36.9882 25.0799 37.2354 25.2597C36.8309 25.4619 36.4265 25.7765 36.0669 26.181C35.1007 27.2146 34.3591 28.8101 34.067 30.3606C33.1457 30.6527 32.2469 30.9224 31.4379 31.1695C31.9772 28.7202 34.0221 25.0799 36.3366 25.0125Z" fill="#95BF47"/>
<path d="M47.8643 29.7539C47.7519 29.7539 45.5273 29.709 45.5273 29.709C45.5273 29.709 43.6622 27.9113 43.4824 27.709C43.415 27.6416 43.3251 27.5967 43.2352 27.5967V55.2135L51.572 53.1462C51.572 53.1462 48.1788 30.1584 48.1564 30.0011C48.1114 29.8438 47.9766 29.7539 47.8643 29.7539Z" fill="#5E8E3E"/>
<path d="M38.6062 34.0458L37.6399 37.6637C37.6399 37.6637 36.5613 37.1693 35.2805 37.2592C33.3929 37.3715 33.3929 38.5625 33.3929 38.8546C33.5053 40.4725 37.7523 40.8321 37.9995 44.6297C38.1792 47.6183 36.4265 49.6632 33.8648 49.8205C30.8087 49.9778 29.1234 48.1801 29.1234 48.1801L29.7751 45.4162C29.7751 45.4162 31.4829 46.697 32.8311 46.6071C33.7075 46.5622 34.0446 45.8206 33.9996 45.3263C33.8648 43.214 30.4043 43.3488 30.1795 39.8658C29.9998 36.9446 31.9098 34.0009 36.1344 33.7312C37.7747 33.6189 38.6062 34.0458 38.6062 34.0458Z" fill="white"/>
<path d="M62.8523 41.7533C61.8861 41.2364 61.3917 40.787 61.3917 40.1803C61.3917 39.4163 62.0883 38.9219 63.1669 38.9219C64.4253 38.9219 65.5488 39.4387 65.5488 39.4387L66.4252 36.7422C66.4252 36.7422 65.6163 36.113 63.2343 36.113C59.9086 36.113 57.5941 38.0231 57.5941 40.6971C57.5941 42.2251 58.6727 43.3712 60.1109 44.2026C61.2794 44.8543 61.6838 45.3261 61.6838 46.0227C61.6838 46.7418 61.0996 47.3261 60.021 47.3261C58.4255 47.3261 56.8975 46.4946 56.8975 46.4946L55.9537 49.1912C55.9537 49.1912 57.3469 50.1349 59.7064 50.1349C63.122 50.1349 65.5938 48.4496 65.5938 45.416C65.5713 43.7756 64.3354 42.6072 62.8523 41.7533Z" fill="black"/>
<path d="M76.4697 36.0682C74.7844 36.0682 73.4586 36.8772 72.4474 38.0906L72.4025 38.0681L73.8631 30.428H70.0655L66.3578 49.8879H70.1554L71.4138 43.2364C71.9081 40.7197 73.2114 39.1692 74.4249 39.1692C75.2788 39.1692 75.6158 39.7534 75.6158 40.5849C75.6158 41.1017 75.5709 41.7534 75.4585 42.2702L74.0204 49.8879H77.818L79.3011 42.023C79.4584 41.1916 79.5707 40.2029 79.5707 39.5287C79.5932 37.3715 78.4697 36.0682 76.4697 36.0682Z" fill="black"/>
<path d="M88.1997 36.0681C83.6156 36.0681 80.582 40.2028 80.582 44.8093C80.582 47.753 82.4022 50.135 85.8178 50.135C90.312 50.135 93.3456 46.1126 93.3456 41.3937C93.368 38.6748 91.7726 36.0681 88.1997 36.0681ZM86.3346 47.2362C85.0313 47.2362 84.492 46.1351 84.492 44.7419C84.492 42.5622 85.6155 39.0118 87.6829 39.0118C89.0311 39.0118 89.4805 40.1803 89.4805 41.3039C89.4805 43.6408 88.3345 47.2362 86.3346 47.2362Z" fill="black"/>
<path d="M103.098 36.0681C100.536 36.0681 99.0756 38.3377 99.0756 38.3377H99.0306L99.2554 36.2928H95.8847C95.7274 37.6636 95.4128 39.7758 95.1207 41.3488L92.4691 55.2808H96.2667L97.3228 49.6406H97.4127C97.4127 49.6406 98.1992 50.135 99.6374 50.135C104.109 50.135 107.03 45.5509 107.03 40.9218C107.03 38.3602 105.884 36.0681 103.098 36.0681ZM99.4576 47.2811C98.4689 47.2811 97.8846 46.7194 97.8846 46.7194L98.5138 43.1689C98.9632 40.787 100.199 39.2141 101.525 39.2141C102.693 39.2141 103.053 40.2927 103.053 41.3039C103.053 43.7757 101.592 47.2811 99.4576 47.2811Z" fill="black"/>
<path d="M112.468 30.6077C111.255 30.6077 110.289 31.5739 110.289 32.8098C110.289 33.9334 111.008 34.7199 112.086 34.7199H112.131C113.322 34.7199 114.333 33.9109 114.356 32.5177C114.356 31.4166 113.614 30.6077 112.468 30.6077Z" fill="black"/>
<path d="M107.143 49.8654H110.94L113.524 36.3828H109.704L107.143 49.8654Z" fill="black"/>
<path d="M123.209 36.3602H120.558L120.693 35.731C120.917 34.4277 121.681 33.2817 122.962 33.2817C123.636 33.2817 124.176 33.4839 124.176 33.4839L124.917 30.4953C124.917 30.4953 124.266 30.1582 122.85 30.1582C121.502 30.1582 120.153 30.5402 119.12 31.4166C117.816 32.5177 117.21 34.1131 116.918 35.731L116.805 36.3602H115.03L114.468 39.2365H116.243L114.221 49.8877H118.019L120.041 39.2365H122.67L123.209 36.3602Z" fill="black"/>
<path d="M132.378 36.3828C132.378 36.3828 129.996 42.3826 128.94 45.6633H128.895C128.827 44.6072 127.951 36.3828 127.951 36.3828H123.951L126.243 48.7643C126.288 49.034 126.265 49.2137 126.153 49.3935C125.704 50.2474 124.962 51.0788 124.086 51.6856C123.367 52.2024 122.558 52.5395 121.929 52.7642L122.985 56C123.749 55.8427 125.367 55.191 126.715 53.9327C128.445 52.3147 130.063 49.798 131.703 46.3824L136.355 36.3828H132.378Z" fill="black"/>
</svg>
